<svg display="none" xmlns="http://www.w3.org/2000/svg">
    <symbol id="skype" width="40" height="44" viewBox="0 0 40 44">
        <path d="M38.8093 28.2216C41.703 15.2196 30.311 3.40788 16.9327 5.67533C9.6699 1.16873 -0.000488281 6.26133 -0.000488281 14.9016C-0.000488281 16.911 0.55396 18.7922 1.518 20.4137C-1.17099 33.4458 10.3143 45.0877 23.681 42.6654C33.1299 47.6614 43.5712 37.6976 38.8093 28.2216ZM26.0919 36.0628C22.5821 37.5062 16.8061 37.5145 13.3113 35.6849C8.3279 33.0279 7.44211 27.0463 11.7412 27.0463C14.9813 27.0463 13.9556 30.8237 17.2274 32.3636C18.7292 33.0579 21.9577 33.1294 23.8341 31.8642C25.6873 30.6239 25.5175 28.6728 24.5101 27.7405C21.8411 25.2766 14.2037 26.2555 10.7122 21.942C9.19537 20.0708 8.90899 16.7695 10.7738 14.3755C14.0239 10.1936 23.5611 9.93886 27.662 13.097C31.4482 16.027 30.4259 19.916 27.3706 19.916C23.6959 19.916 25.6274 15.108 19.6949 15.108C15.3942 15.108 13.7026 18.1663 16.7312 19.6546C20.8371 21.694 31.3001 21.0131 31.3001 28.9824C31.2917 32.2987 29.2588 34.7709 26.0919 36.0628Z"/>
    </symbol>
</svg>